<svg id="Camada_1" data-name="Camada 1" xmlns="http://www.w3.org/2000/svg" viewBox="0 0 164 197.62"><defs><style>.cls-1{fill:#010101;}.cls-2{fill:#fff;}.cls-3{fill:#a31d19;}.cls-4{fill:#4aad35;}.cls-5{fill:#306db4;}</style></defs><title>Prancheta 1</title><rect class="cls-1" width="164" height="197.62"/><path class="cls-2" d="M33.81,185.54l-9.28-23.26H23.38l-8.49,21.83h0s-.6,1.43-1.27,1.43H11.3v.79h7.89v-.79H16c-.88,0-.4-1.28-.39-1.29l1.73-4.34H26l2.17,5.63H24.79v.79H36.56v-.79Zm-16.1-6.49,4-10.12,3.91,10.12Z"/><path class="cls-2" d="M57.09,183.1c-.61-2.12-1.65-8.75-6.6-9,0,0-.1-.13.08-.14a5.25,5.25,0,0,0,5.16-5.61c0-5.45-5.12-5.63-8.37-5.63h-11v.79h2.88v22.07H36.31v.79h11v-.79H44.53v-11h2.83s2.23-.59,3.31,4.54,1.72,7.29,4.73,7.29h4.83v-.79S57.91,185.93,57.09,183.1Zm-9.73-9.48H44.53V163.47h2.83s2.92-.18,2.92,4.84S47.92,173.62,47.36,173.62Z"/><path class="cls-2" d="M82.49,185.54l-9.28-23.26H72.06l-8.49,21.83h0s-.6,1.43-1.27,1.43H60v.79h7.89v-.79H64.72c-.89,0-.4-1.28-.4-1.29l1.73-4.34h8.63l2.17,5.63H69.17v.79H85.24v-.79ZM66.4,179.05l4-10.12,3.91,10.12Z"/><path class="cls-2" d="M127.4,162.86H116.33v.79h3v19.77a2.5,2.5,0,0,1-2.69,2.58,2.52,2.52,0,0,1-2.11-1.29c-.27-.55.14-.79.4-1.11a2.56,2.56,0,0,0,.42-1.55,1.82,1.82,0,0,0-2-1.63c-1.34,0-2.22.53-2.22,2.08s2,4.39,5.51,4.39,7.81-1.46,7.81-7.28v-16h2.9Z"/><path class="cls-2" d="M141.73,162.42c-7.21,0-13.06,4-13.06,12.18s5.85,12.17,13.06,12.17,13.06-4,13.06-12.17S148.94,162.42,141.73,162.42ZM141.8,186h-.14c-6.35,0-7.12-5.09-7.12-11.38s.57-11.37,7.12-11.37h.14c6.55,0,7.12,5.09,7.12,11.37S148.15,186,141.8,186Z"/><path class="cls-2" d="M102.05,162.86v.79h2.54s1.46.08,1.46.89v15.07a6.46,6.46,0,0,1-6.58,6.46c-2.65,0-6.46-1.79-6.46-7.41v-15h2.84v-.79h-10v.79h1.89v14.89s-.63,8.25,11.76,8.25c6.58,0,7.58-6,7.58-7.67V164.54c0-.81,1.45-.89,1.45-.89h1.43v-.79Z"/><path class="cls-2" d="M101.25,159.69a1.49,1.49,0,0,0,.8-.8c.13-.35.13-1.36-1.3-1.36a2,2,0,0,0-1.53.67c-.4.41-2.17,2.76-2.17,2.76l.33.41Z"/><rect class="cls-3" x="11.3" y="129.05" width="46.7" height="22.59"/><rect class="cls-4" x="57.99" y="129.05" width="48.01" height="22.59"/><rect class="cls-5" x="106.01" y="129.05" width="46.7" height="22.59"/><polygon class="cls-2" points="112.57 40.91 112.57 64.41 112.57 87.92 141.73 101.62 141.73 64.41 141.73 27.2 112.57 40.91"/><polygon class="cls-2" points="103.46 83.64 103.46 64.41 103.46 45.19 62.55 64.41 103.46 83.64"/><path class="cls-2" d="M104.6,89.56c-6.33,8.08-16.11,13.21-28.44,13.21-20.17,0-36.51-17-36.51-38S56,26.86,76.16,26.86c12.26,0,22.08,5.16,28.44,13.29V19.9a51.55,51.55,0,0,0-28.54-8.6C47.14,11.3,23.7,35.13,23.7,64.52s23.44,53.23,52.36,53.23a51.55,51.55,0,0,0,28.54-8.6Z"/></svg>